<svg xmlns="http://www.w3.org/2000/svg" xmlns:xlink="http://www.w3.org/1999/xlink" id="Logotipo_KOM_2020" x="0px" y="0px" viewBox="0 0 579 126" xml:space="preserve"><g>	<g>		<g id="XMLID_8_">			<g>				<g>					<path fill="#FF4B36" d="M161.2,116.4L161.2,116.4c-29.4,0-53.3-23.9-53.3-53.3c0-29.4,23.9-53.3,53.3-53.3s53.3,23.9,53.3,53.3      C214.4,92.5,190.6,116.4,161.2,116.4C161.2,116.4,161.2,116.4,161.2,116.4C161.2,116.4,161.2,116.4,161.2,116.4z M161.2,26.8      c-20.1,0-36.4,16.3-36.4,36.4c0,20.1,16.3,36.4,36.4,36.4c0,0,0,0,0.1,0c20,0,36.3-16.4,36.3-36.4      C197.6,43.1,181.2,26.8,161.2,26.8z"></path>				</g>			</g>		</g>		<path fill="#08104D" d="M347.9,77v29.5c0,2.8-0.9,5.1-2.6,6.8c-1.7,1.7-4,2.6-6.9,2.6c-2.8,0-5.1-0.9-6.8-2.6   c-1.7-1.7-2.6-4-2.6-6.8V19c0-2.8,0.9-5.1,2.6-6.8c1.7-1.7,4-2.6,6.8-2.6c2.8,0,5.1,0.9,6.9,2.6c1.7,1.7,2.6,4,2.6,6.8v34.2V77z"></path>		<path fill="#08104D" d="M299.8,41v29.5c0,2.8-0.9,5.1-2.6,6.8c-1.7,1.7-4,2.6-6.9,2.6c-2.8,0-5.1-0.9-6.8-2.6   c-1.7-1.7-2.6-4-2.6-6.8V19c0-2.8,0.9-5.1,2.6-6.8c1.7-1.7,4-2.6,6.8-2.6c2.8,0,5.1,0.9,6.9,2.6c1.7,1.7,2.6,4,2.6,6.8v34.2V41z"></path>		<path fill="#08104D" d="M251.9,77v29.5c0,2.8-0.9,5.1-2.6,6.8c-1.7,1.7-4,2.6-6.9,2.6c-2.8,0-5.1-0.9-6.8-2.6   c-1.7-1.7-2.6-4-2.6-6.8V19c0-2.8,0.9-5.1,2.6-6.8c1.7-1.7,4-2.6,6.8-2.6c2.8,0,5.1,0.9,6.9,2.6c1.7,1.7,2.6,4,2.6,6.8v34.2V77z"></path>		<circle fill="#08104D" cx="161.5" cy="62.7" r="17.1"></circle>		<path fill="#08104D" d="M27.1,77v29.5c0,2.8-0.9,5.1-2.6,6.8c-1.7,1.7-4,2.6-6.9,2.6c-2.8,0-5.1-0.9-6.8-2.6   c-1.7-1.7-2.6-4-2.6-6.8V19c0-2.8,0.9-5.1,2.6-6.8c1.7-1.7,4-2.6,6.8-2.6c2.8,0,5.1,0.9,6.9,2.6c1.7,1.7,2.6,4,2.6,6.8v34.2V77z"></path>		<g>			<path fill="#08104D" d="M88.7,116.2c-2.2,0-4.3-0.8-6-2.5L38.6,69.6c-1.6-1.6-2.5-3.7-2.5-6c0-2.2,0.9-4.4,2.5-6L84,12.3    C87.3,9,92.7,9,96,12.3c3.3,3.3,3.3,8.6,0,11.9L56.6,63.6l38.1,38.1c3.3,3.3,3.3,8.6,0,11.9C93,115.4,90.9,116.2,88.7,116.2z"></path>		</g>	</g>	<g>		<path fill="#08104D" d="M407.3,25.4c1.7,1.6,2.5,3.9,2.5,7v15.9h-2.3v-4.5c-0.8,1.5-2,2.6-3.5,3.4c-1.5,0.8-3.4,1.2-5.5,1.2   c-2.8,0-5-0.7-6.6-2c-1.6-1.3-2.4-3-2.4-5.2c0-2.1,0.7-3.8,2.2-5.1c1.5-1.3,3.9-1.9,7.1-1.9h8.6v-2c0-2.3-0.6-4.1-1.9-5.3   c-1.3-1.2-3.1-1.8-5.5-1.8c-1.7,0-3.3,0.3-4.8,0.9c-1.5,0.6-2.8,1.3-3.9,2.3l-1.2-1.7c1.2-1.1,2.8-2,4.5-2.6   c1.8-0.6,3.6-0.9,5.5-0.9C403.3,23,405.7,23.8,407.3,25.4z M404.2,45.1c1.5-1,2.6-2.4,3.3-4.2v-4.7h-8.5c-2.5,0-4.2,0.4-5.4,1.3   c-1.1,0.9-1.7,2.1-1.7,3.7c0,1.6,0.6,2.9,1.8,3.9c1.2,0.9,2.9,1.4,5.1,1.4C400.9,46.5,402.7,46,404.2,45.1z"></path>		<path fill="#08104D" d="M442.3,23.2v22.4c0,4.2-1,7.2-3,9.2c-2,2-5.1,3-9.1,3c-2.3,0-4.5-0.4-6.5-1.1c-2-0.7-3.7-1.7-4.9-2.9   L420,52c1.2,1.2,2.8,2,4.5,2.7c1.8,0.6,3.6,1,5.6,1c3.3,0,5.8-0.8,7.4-2.4c1.6-1.6,2.4-4,2.4-7.4v-4.2c-1,1.8-2.4,3.2-4.3,4.2   c-1.8,1-3.9,1.5-6.1,1.5c-2.3,0-4.5-0.5-6.4-1.6s-3.4-2.5-4.5-4.3c-1.1-1.9-1.6-4-1.6-6.3s0.5-4.4,1.6-6.3   c1.1-1.9,2.6-3.3,4.5-4.3c1.9-1,4-1.5,6.4-1.5c2.3,0,4.4,0.5,6.2,1.5c1.9,1,3.3,2.5,4.3,4.3v-5.7H442.3z M435,43.9   c1.6-0.8,2.8-2,3.7-3.6c0.9-1.5,1.3-3.3,1.3-5.2s-0.4-3.7-1.3-5.2c-0.9-1.5-2.1-2.7-3.7-3.5c-1.6-0.8-3.3-1.3-5.3-1.3   c-2,0-3.7,0.4-5.3,1.3c-1.6,0.8-2.8,2-3.6,3.5c-0.9,1.5-1.3,3.2-1.3,5.2s0.4,3.7,1.3,5.2c0.9,1.5,2.1,2.7,3.6,3.6s3.3,1.3,5.3,1.3   C431.7,45.2,433.4,44.8,435,43.9z"></path>		<path fill="#08104D" d="M473.7,36.3h-21.6c0.1,2,0.6,3.7,1.5,5.2c0.9,1.5,2.2,2.7,3.8,3.5s3.4,1.2,5.4,1.2c1.6,0,3.1-0.3,4.5-0.9   c1.4-0.6,2.6-1.5,3.5-2.6l1.4,1.6c-1.1,1.3-2.5,2.3-4.1,3c-1.6,0.7-3.4,1.1-5.4,1.1c-2.5,0-4.7-0.5-6.7-1.6   c-2-1.1-3.5-2.6-4.6-4.5c-1.1-1.9-1.7-4.1-1.7-6.6c0-2.4,0.5-4.6,1.6-6.6c1-1.9,2.5-3.4,4.3-4.5c1.8-1.1,3.9-1.6,6.1-1.6   s4.3,0.5,6.1,1.6s3.2,2.6,4.3,4.5c1,1.9,1.6,4.1,1.6,6.5L473.7,36.3z M457,26.3c-1.4,0.8-2.5,1.9-3.4,3.3c-0.8,1.4-1.3,3-1.5,4.8   h19.2c-0.1-1.8-0.6-3.4-1.4-4.8c-0.9-1.4-2-2.5-3.4-3.3s-3-1.2-4.8-1.2S458.4,25.5,457,26.3z"></path>		<path fill="#08104D" d="M500.8,25.8c1.8,1.8,2.7,4.4,2.7,7.9v14.6h-2.4V33.8c0-2.8-0.7-5-2.1-6.4s-3.4-2.2-6-2.2   c-2.9,0-5.3,0.9-7,2.6c-1.7,1.8-2.5,4.1-2.5,7.1v13.3h-2.4V23.2h2.3v5.4c0.9-1.8,2.2-3.1,3.9-4.1s3.7-1.5,6.1-1.5   C496.5,23,499,23.9,500.8,25.8z"></path>		<path fill="#08104D" d="M516.9,46.8c-1.9-1.1-3.4-2.6-4.5-4.5c-1.1-1.9-1.6-4.1-1.6-6.6c0-2.5,0.5-4.7,1.6-6.6   c1.1-1.9,2.6-3.4,4.5-4.5s4.1-1.6,6.5-1.6c2,0,3.8,0.4,5.5,1.2c1.6,0.8,3,1.9,4,3.4l-1.8,1.3c-0.9-1.2-2-2.2-3.3-2.8   c-1.3-0.6-2.8-0.9-4.4-0.9c-2,0-3.7,0.4-5.3,1.3s-2.8,2.1-3.6,3.7c-0.9,1.6-1.3,3.4-1.3,5.5c0,2.1,0.4,3.9,1.3,5.5   c0.9,1.6,2.1,2.8,3.6,3.7c1.6,0.9,3.3,1.3,5.3,1.3c1.6,0,3.1-0.3,4.4-0.9c1.3-0.6,2.4-1.6,3.3-2.8l1.8,1.3c-1,1.5-2.4,2.6-4,3.4   c-1.6,0.8-3.5,1.2-5.5,1.2C521,48.5,518.8,47.9,516.9,46.8z"></path>		<path fill="#08104D" d="M540,16.6c-0.4-0.4-0.6-0.8-0.6-1.4c0-0.5,0.2-1,0.6-1.4c0.4-0.4,0.8-0.6,1.4-0.6c0.5,0,1,0.2,1.4,0.6   c0.4,0.4,0.6,0.8,0.6,1.4c0,0.5-0.2,1-0.6,1.4c-0.4,0.4-0.8,0.6-1.4,0.6C540.8,17.1,540.4,16.9,540,16.6z M540.2,23.2h2.4v25.1   h-2.4V23.2z"></path>		<path fill="#08104D" d="M568.3,25.4c1.7,1.6,2.5,3.9,2.5,7v15.9h-2.3v-4.5c-0.8,1.5-2,2.6-3.5,3.4c-1.5,0.8-3.4,1.2-5.5,1.2   c-2.8,0-5-0.7-6.6-2c-1.6-1.3-2.4-3-2.4-5.2c0-2.1,0.7-3.8,2.2-5.1c1.5-1.3,3.9-1.9,7.1-1.9h8.6v-2c0-2.3-0.6-4.1-1.9-5.3   c-1.3-1.2-3.1-1.8-5.5-1.8c-1.7,0-3.3,0.3-4.8,0.9c-1.5,0.6-2.8,1.3-3.9,2.3l-1.2-1.7c1.2-1.1,2.8-2,4.5-2.6   c1.8-0.6,3.6-0.9,5.5-0.9C564.2,23,566.6,23.8,568.3,25.4z M565.1,45.1c1.5-1,2.6-2.4,3.3-4.2v-4.7h-8.5c-2.5,0-4.2,0.4-5.4,1.3   c-1.1,0.9-1.7,2.1-1.7,3.7c0,1.6,0.6,2.9,1.8,3.9c1.2,0.9,2.9,1.4,5.1,1.4C561.9,46.5,563.6,46,565.1,45.1z"></path>		<path fill="#08104D" d="M414,67.7v35.6h-2.4v-5.9c-1,2-2.4,3.5-4.2,4.5c-1.8,1.1-3.8,1.6-6.1,1.6c-2.3,0-4.4-0.5-6.3-1.6   c-1.9-1.1-3.4-2.6-4.4-4.5s-1.6-4.1-1.6-6.6c0-2.5,0.5-4.7,1.6-6.6c1.1-1.9,2.6-3.4,4.4-4.5c1.9-1.1,4-1.6,6.3-1.6   c2.2,0,4.2,0.5,6,1.6c1.8,1.1,3.2,2.5,4.2,4.4V67.7H414z M406.7,100c1.5-0.9,2.7-2.1,3.6-3.7c0.9-1.6,1.3-3.4,1.3-5.5   c0-2-0.4-3.9-1.3-5.5c-0.9-1.6-2.1-2.8-3.6-3.7c-1.5-0.9-3.2-1.3-5.2-1.3s-3.6,0.4-5.2,1.3c-1.5,0.9-2.7,2.1-3.6,3.7   c-0.9,1.6-1.3,3.4-1.3,5.5c0,2,0.4,3.9,1.3,5.5c0.9,1.6,2.1,2.8,3.6,3.7s3.2,1.3,5.2,1.3S405.2,100.9,406.7,100z"></path>		<path fill="#08104D" d="M424,71.6c-0.4-0.4-0.6-0.8-0.6-1.4c0-0.5,0.2-1,0.6-1.4c0.4-0.4,0.8-0.6,1.4-0.6c0.5,0,1,0.2,1.4,0.6   c0.4,0.4,0.6,0.8,0.6,1.4c0,0.5-0.2,1-0.6,1.4c-0.4,0.4-0.8,0.6-1.4,0.6C424.8,72.1,424.3,71.9,424,71.6z M424.1,78.2h2.4v25.1   h-2.4V78.2z"></path>		<path fill="#08104D" d="M459.2,78.2v22.4c0,4.2-1,7.2-3,9.2c-2,2-5.1,3-9.1,3c-2.3,0-4.5-0.4-6.5-1.1c-2-0.7-3.7-1.7-4.9-2.9   l1.3-1.8c1.2,1.2,2.8,2,4.5,2.7c1.8,0.6,3.6,1,5.6,1c3.3,0,5.8-0.8,7.4-2.4c1.6-1.6,2.4-4,2.4-7.4v-4.2c-1,1.8-2.4,3.2-4.3,4.2   c-1.8,1-3.9,1.5-6.1,1.5c-2.3,0-4.5-0.5-6.4-1.6s-3.4-2.5-4.5-4.3c-1.1-1.9-1.6-4-1.6-6.3s0.5-4.4,1.6-6.3   c1.1-1.9,2.6-3.3,4.5-4.3c1.9-1,4-1.5,6.4-1.5c2.3,0,4.4,0.5,6.2,1.5c1.9,1,3.3,2.5,4.3,4.3v-5.7H459.2z M451.9,98.9   c1.6-0.8,2.8-2,3.7-3.6c0.9-1.5,1.3-3.3,1.3-5.2s-0.4-3.7-1.3-5.2c-0.9-1.5-2.1-2.7-3.7-3.5c-1.6-0.8-3.3-1.3-5.3-1.3   c-2,0-3.7,0.4-5.3,1.3c-1.6,0.8-2.8,2-3.6,3.5c-0.9,1.5-1.3,3.2-1.3,5.2s0.4,3.7,1.3,5.2c0.9,1.5,2.1,2.7,3.6,3.6s3.3,1.3,5.3,1.3   C448.6,100.2,450.3,99.8,451.9,98.9z"></path>		<path fill="#08104D" d="M469.2,71.6c-0.4-0.4-0.6-0.8-0.6-1.4c0-0.5,0.2-1,0.6-1.4c0.4-0.4,0.8-0.6,1.4-0.6c0.5,0,1,0.2,1.4,0.6   c0.4,0.4,0.6,0.8,0.6,1.4c0,0.5-0.2,1-0.6,1.4c-0.4,0.4-0.8,0.6-1.4,0.6C470.1,72.1,469.6,71.9,469.2,71.6z M469.4,78.2h2.4v25.1   h-2.4V78.2z"></path>		<path fill="#08104D" d="M494.4,101.7c-0.6,0.6-1.4,1-2.3,1.3s-1.9,0.5-2.9,0.5c-2.2,0-3.9-0.6-5-1.8c-1.2-1.2-1.8-2.9-1.8-5V80.3   h-4.6v-2.1h4.6v-5.5h2.4v5.5h8v2.1h-8v16.1c0,1.6,0.4,2.9,1.2,3.7s1.9,1.3,3.5,1.3c1.6,0,2.9-0.5,3.9-1.4L494.4,101.7z"></path>		<path fill="#08104D" d="M516.6,80.4c1.7,1.6,2.5,3.9,2.5,7v15.9h-2.3v-4.5c-0.8,1.5-2,2.6-3.5,3.4c-1.5,0.8-3.4,1.2-5.5,1.2   c-2.8,0-5-0.7-6.6-2c-1.6-1.3-2.4-3-2.4-5.2c0-2.1,0.7-3.8,2.2-5.1c1.5-1.3,3.9-1.9,7.1-1.9h8.6v-2c0-2.3-0.6-4.1-1.9-5.3   c-1.3-1.2-3.1-1.8-5.5-1.8c-1.7,0-3.3,0.3-4.8,0.9c-1.5,0.6-2.8,1.3-3.9,2.3l-1.2-1.7c1.2-1.1,2.8-2,4.5-2.6   c1.8-0.6,3.6-0.9,5.5-0.9C512.6,78,515,78.8,516.6,80.4z M513.4,100.1c1.5-1,2.6-2.4,3.3-4.2v-4.7h-8.5c-2.5,0-4.2,0.4-5.4,1.3   c-1.1,0.9-1.7,2.1-1.7,3.7c0,1.6,0.6,2.9,1.8,3.9c1.2,0.9,2.9,1.4,5.1,1.4C510.2,101.5,512,101,513.4,100.1z"></path>		<path fill="#08104D" d="M529,67.7h2.4v35.6H529V67.7z"></path>	</g></g></svg>